<svg width="10" height="10" viewBox="0 0 10 10" fill="none" xmlns="http://www.w3.org/2000/svg">
<path d="M4.99968 0.833252C7.30093 0.833252 9.16634 2.69867 9.16634 4.99992C9.16634 7.30117 7.30093 9.16659 4.99968 9.16659C2.69842 9.16659 0.833008 7.30117 0.833008 4.99992C0.833008 2.69867 2.69842 0.833252 4.99968 0.833252ZM4.99968 1.66659C4.11562 1.66659 3.26777 2.01778 2.64265 2.6429C2.01753 3.26802 1.66634 4.11586 1.66634 4.99992C1.66634 5.88397 2.01753 6.73182 2.64265 7.35694C3.26777 7.98206 4.11562 8.33325 4.99968 8.33325C5.88373 8.33325 6.73158 7.98206 7.3567 7.35694C7.98182 6.73182 8.33301 5.88397 8.33301 4.99992C8.33301 4.11586 7.98182 3.26802 7.3567 2.6429C6.73158 2.01778 5.88373 1.66659 4.99968 1.66659ZM4.99968 2.49992C5.10173 2.49993 5.20023 2.5374 5.2765 2.60522C5.35276 2.67303 5.40148 2.76648 5.41343 2.86784L5.41634 2.91659V4.82742L6.54426 5.95534C6.61899 6.03032 6.66237 6.13093 6.6656 6.23675C6.66884 6.34256 6.63167 6.44563 6.56166 6.52504C6.49164 6.60444 6.39403 6.65421 6.28864 6.66425C6.18326 6.67429 6.07801 6.64384 5.99426 6.57909L5.95509 6.5445L4.70509 5.2945C4.64033 5.22969 4.59874 5.14534 4.58676 5.0545L4.58301 4.99992V2.91659C4.58301 2.80608 4.62691 2.7001 4.70505 2.62196C4.78319 2.54382 4.88917 2.49992 4.99968 2.49992Z" fill="black" fill-opacity="0.2"/>
</svg>
